kick coordinate motion generated from LLM joint_angles
version=1
nRows=27
nColumns=36
inDegrees=yes
endheader
time	pelvis_tilt	pelvis_list	pelvis_rotation	pelvis_tx	pelvis_ty	pelvis_tz	hip_flexion_r	hip_adduction_r	hip_rotation_r	knee_angle_r	knee_angle_r_beta	ankle_angle_r	subtalar_angle_r	mtp_angle_r	hip_flexion_l	hip_adduction_l	hip_rotation_l	knee_angle_l	knee_angle_l_beta	ankle_angle_l	subtalar_angle_l	mtp_angle_l	lumbar_extension	lumbar_bending	lumbar_rotation	arm_flex_r	arm_add_r	arm_rot_r	elbow_flex_r	pro_sup_r	arm_flex_l	arm_add_l	arm_rot_l	elbow_flex_l	pro_sup_l
0.753333	6.996633	3.498317	3.498317	0.000000	0.000000	0.000000	62.969701	0.000000	0.000000	83.959601	0.000000	62.969701	6.996633	13.993267	0.000000	0.000000	0.000000	0.000000	0.000000	0.000000	0.000000	0.000000	0.000000	0.000000	0.000000	0.000000	0.000000	0.000000	0.000000	0.000000	0.000000	0.000000	0.000000	0.000000	0.000000
0.760000	6.845471	3.422736	3.422736	0.000000	0.000000	0.000000	61.609240	0.000000	0.000000	82.145653	0.000000	61.609240	6.845471	13.690942	0.000000	0.000000	0.000000	0.000000	0.000000	0.000000	0.000000	0.000000	0.000000	0.000000	0.000000	0.000000	0.000000	0.000000	0.000000	0.000000	0.000000	0.000000	0.000000	0.000000	0.000000
0.766667	6.691306	3.345653	3.345653	0.000000	0.000000	0.000000	60.221755	0.000000	0.000000	80.295673	0.000000	60.221755	6.691306	13.382612	0.000000	0.000000	0.000000	0.000000	0.000000	0.000000	0.000000	0.000000	0.000000	0.000000	0.000000	0.000000	0.000000	0.000000	0.000000	0.000000	0.000000	0.000000	0.000000	0.000000	0.000000
0.773333	6.534206	3.267103	3.267103	0.000000	0.000000	0.000000	58.807854	0.000000	0.000000	78.410472	0.000000	58.807854	6.534206	13.068412	0.000000	0.000000	0.000000	0.000000	0.000000	0.000000	0.000000	0.000000	0.000000	0.000000	0.000000	0.000000	0.000000	0.000000	0.000000	0.000000	0.000000	0.000000	0.000000	0.000000	0.000000
0.780000	6.374240	3.187120	3.187120	0.000000	0.000000	0.000000	57.368159	0.000000	0.000000	76.490879	0.000000	57.368159	6.374240	12.748480	0.000000	0.000000	0.000000	0.000000	0.000000	0.000000	0.000000	0.000000	0.000000	0.000000	0.000000	0.000000	0.000000	0.000000	0.000000	0.000000	0.000000	0.000000	0.000000	0.000000	0.000000
0.786667	6.211478	3.105739	3.105739	0.000000	0.000000	0.000000	55.903300	0.000000	0.000000	74.537734	0.000000	55.903300	6.211478	12.422956	0.000000	0.000000	0.000000	0.000000	0.000000	0.000000	0.000000	0.000000	0.000000	0.000000	0.000000	0.000000	0.000000	0.000000	0.000000	0.000000	0.000000	0.000000	0.000000	0.000000	0.000000
0.793333	6.045991	3.022996	3.022996	0.000000	0.000000	0.000000	54.413920	0.000000	0.000000	72.551894	0.000000	54.413920	6.045991	12.091982	0.000000	0.000000	0.000000	0.000000	0.000000	0.000000	0.000000	0.000000	0.000000	0.000000	0.000000	0.000000	0.000000	0.000000	0.000000	0.000000	0.000000	0.000000	0.000000	0.000000	0.000000
0.800000	5.877853	2.938926	2.938926	0.000000	0.000000	0.000000	52.900673	0.000000	0.000000	70.534230	0.000000	52.900673	5.877853	11.755705	0.000000	0.000000	0.000000	0.000000	0.000000	0.000000	0.000000	0.000000	0.000000	0.000000	0.000000	0.000000	0.000000	0.000000	0.000000	0.000000	0.000000	0.000000	0.000000	0.000000	0.000000
0.806667	5.707136	2.853568	2.853568	0.000000	0.000000	0.000000	51.364221	0.000000	0.000000	68.485628	0.000000	51.364221	5.707136	11.414271	0.000000	0.000000	0.000000	0.000000	0.000000	0.000000	0.000000	0.000000	0.000000	0.000000	0.000000	0.000000	0.000000	0.000000	0.000000	0.000000	0.000000	0.000000	0.000000	0.000000	0.000000
0.813333	5.533915	2.766958	2.766958	0.000000	0.000000	0.000000	49.805239	0.000000	0.000000	66.406986	0.000000	49.805239	5.533915	11.067831	0.000000	0.000000	0.000000	0.000000	0.000000	0.000000	0.000000	0.000000	0.000000	0.000000	0.000000	0.000000	0.000000	0.000000	0.000000	0.000000	0.000000	0.000000	0.000000	0.000000	0.000000
0.820000	5.358268	2.679134	2.679134	0.000000	0.000000	0.000000	48.224412	0.000000	0.000000	64.299215	0.000000	48.224412	5.358268	10.716536	0.000000	0.000000	0.000000	0.000000	0.000000	0.000000	0.000000	0.000000	0.000000	0.000000	0.000000	0.000000	0.000000	0.000000	0.000000	0.000000	0.000000	0.000000	0.000000	0.000000	0.000000
0.826667	5.180270	2.590135	2.590135	0.000000	0.000000	0.000000	46.622431	0.000000	0.000000	62.163241	0.000000	46.622431	5.180270	10.360540	0.000000	0.000000	0.000000	0.000000	0.000000	0.000000	0.000000	0.000000	0.000000	0.000000	0.000000	0.000000	0.000000	0.000000	0.000000	0.000000	0.000000	0.000000	0.000000	0.000000	0.000000
0.833333	5.000000	2.500000	2.500000	0.000000	0.000000	0.000000	45.000000	0.000000	0.000000	60.000000	0.000000	45.000000	5.000000	10.000000	0.000000	0.000000	0.000000	0.000000	0.000000	0.000000	0.000000	0.000000	0.000000	0.000000	0.000000	0.000000	0.000000	0.000000	0.000000	0.000000	0.000000	0.000000	0.000000	0.000000	0.000000
0.840000	4.817537	2.408768	2.408768	0.000000	0.000000	0.000000	43.357831	0.000000	0.000000	57.810441	0.000000	43.357831	4.817537	9.635073	0.000000	0.000000	0.000000	0.000000	0.000000	0.000000	0.000000	0.000000	0.000000	0.000000	0.000000	0.000000	0.000000	0.000000	0.000000	0.000000	0.000000	0.000000	0.000000	0.000000	0.000000
0.846667	4.632960	2.316480	2.316480	0.000000	0.000000	0.000000	41.696643	0.000000	0.000000	55.595524	0.000000	41.696643	4.632960	9.265921	0.000000	0.000000	0.000000	0.000000	0.000000	0.000000	0.000000	0.000000	0.000000	0.000000	0.000000	0.000000	0.000000	0.000000	0.000000	0.000000	0.000000	0.000000	0.000000	0.000000	0.000000
0.853333	4.446352	2.223176	2.223176	0.000000	0.000000	0.000000	40.017166	0.000000	0.000000	53.356222	0.000000	40.017166	4.446352	8.892704	0.000000	0.000000	0.000000	0.000000	0.000000	0.000000	0.000000	0.000000	0.000000	0.000000	0.000000	0.000000	0.000000	0.000000	0.000000	0.000000	0.000000	0.000000	0.000000	0.000000	0.000000
0.860000	4.257793	2.128896	2.128896	0.000000	0.000000	0.000000	38.320136	0.000000	0.000000	51.093515	0.000000	38.320136	4.257793	8.515586	0.000000	0.000000	0.000000	0.000000	0.000000	0.000000	0.000000	0.000000	0.000000	0.000000	0.000000	0.000000	0.000000	0.000000	0.000000	0.000000	0.000000	0.000000	0.000000	0.000000	0.000000
0.866667	4.067366	2.033683	2.033683	0.000000	0.000000	0.000000	36.606298	0.000000	0.000000	48.808397	0.000000	36.606298	4.067366	8.134733	0.000000	0.000000	0.000000	0.000000	0.000000	0.000000	0.000000	0.000000	0.000000	0.000000	0.000000	0.000000	0.000000	0.000000	0.000000	0.000000	0.000000	0.000000	0.000000	0.000000	0.000000
0.873333	3.875156	1.937578	1.937578	0.000000	0.000000	0.000000	34.876403	0.000000	0.000000	46.501870	0.000000	34.876403	3.875156	7.750312	0.000000	0.000000	0.000000	0.000000	0.000000	0.000000	0.000000	0.000000	0.000000	0.000000	0.000000	0.000000	0.000000	0.000000	0.000000	0.000000	0.000000	0.000000	0.000000	0.000000	0.000000
0.880000	3.681246	1.840623	1.840623	0.000000	0.000000	0.000000	33.131210	0.000000	0.000000	44.174946	0.000000	33.131210	3.681246	7.362491	0.000000	0.000000	0.000000	0.000000	0.000000	0.000000	0.000000	0.000000	0.000000	0.000000	0.000000	0.000000	0.000000	0.000000	0.000000	0.000000	0.000000	0.000000	0.000000	0.000000	0.000000
0.886667	3.485720	1.742860	1.742860	0.000000	0.000000	0.000000	31.371484	0.000000	0.000000	41.828646	0.000000	31.371484	3.485720	6.971441	0.000000	0.000000	0.000000	0.000000	0.000000	0.000000	0.000000	0.000000	0.000000	0.000000	0.000000	0.000000	0.000000	0.000000	0.000000	0.000000	0.000000	0.000000	0.000000	0.000000	0.000000
0.893333	3.288666	1.644333	1.644333	0.000000	0.000000	0.000000	29.597998	0.000000	0.000000	39.463998	0.000000	29.597998	3.288666	6.577333	0.000000	0.000000	0.000000	0.000000	0.000000	0.000000	0.000000	0.000000	0.000000	0.000000	0.000000	0.000000	0.000000	0.000000	0.000000	0.000000	0.000000	0.000000	0.000000	0.000000	0.000000
0.900000	3.090170	1.545085	1.545085	0.000000	0.000000	0.000000	27.811529	0.000000	0.000000	37.082039	0.000000	27.811529	3.090170	6.180340	0.000000	0.000000	0.000000	0.000000	0.000000	0.000000	0.000000	0.000000	0.000000	0.000000	0.000000	0.000000	0.000000	0.000000	0.000000	0.000000	0.000000	0.000000	0.000000	0.000000	0.000000
0.906667	2.890318	1.445159	1.445159	0.000000	0.000000	0.000000	26.012862	0.000000	0.000000	34.683816	0.000000	26.012862	2.890318	5.780636	0.000000	0.000000	0.000000	0.000000	0.000000	0.000000	0.000000	0.000000	0.000000	0.000000	0.000000	0.000000	0.000000	0.000000	0.000000	0.000000	0.000000	0.000000	0.000000	0.000000	0.000000
0.913333	2.689198	1.344599	1.344599	0.000000	0.000000	0.000000	24.202784	0.000000	0.000000	32.270378	0.000000	24.202784	2.689198	5.378396	0.000000	0.000000	0.000000	0.000000	0.000000	0.000000	0.000000	0.000000	0.000000	0.000000	0.000000	0.000000	0.000000	0.000000	0.000000	0.000000	0.000000	0.000000	0.000000	0.000000	0.000000
0.920000	2.486899	1.243449	1.243449	0.000000	0.000000	0.000000	22.382090	0.000000	0.000000	29.842786	0.000000	22.382090	2.486899	4.973798	0.000000	0.000000	0.000000	0.000000	0.000000	0.000000	0.000000	0.000000	0.000000	0.000000	0.000000	0.000000	0.000000	0.000000	0.000000	0.000000	0.000000	0.000000	0.000000	0.000000	0.000000
0.926667	2.283509	1.141754	1.141754	0.000000	0.000000	0.000000	20.551578	0.000000	0.000000	27.402104	0.000000	20.551578	2.283509	4.567017	0.000000	0.000000	0.000000	0.000000	0.000000	0.000000	0.000000	0.000000	0.000000	0.000000	0.000000	0.000000	0.000000	0.000000	0.000000	0.000000	0.000000	0.000000	0.000000	0.000000	0.000000
